<?xml version="1.0" encoding="UTF-8"?>
<svg width="48px" height="60px" viewBox="0 0 48 60" version="1.1" xmlns="http://www.w3.org/2000/svg" xmlns:xlink="http://www.w3.org/1999/xlink">
    <title>doc</title>
    <desc>Created with Sketch.</desc>
    <defs></defs>
    <g id="Page-1" stroke="none" stroke-width="1" fill="none" fill-rule="evenodd">
        <g id="doc" fill-rule="nonzero" fill="#DEE2E6">
            <path d="M36.5,22 L11.5,22 C10.948,22 10.5,22.447 10.5,23 C10.5,23.553 10.948,24 11.5,24 L36.5,24 C37.052,24 37.5,23.553 37.5,23 C37.5,22.447 37.052,22 36.5,22 Z" id="Shape"></path>
            <path d="M11.5,16 L21.5,16 C22.052,16 22.5,15.553 22.5,15 C22.5,14.447 22.052,14 21.5,14 L11.5,14 C10.948,14 10.5,14.447 10.5,15 C10.5,15.553 10.948,16 11.5,16 Z" id="Shape"></path>
            <path d="M36.5,30 L11.5,30 C10.948,30 10.5,30.447 10.5,31 C10.5,31.553 10.948,32 11.5,32 L36.5,32 C37.052,32 37.5,31.553 37.5,31 C37.5,30.447 37.052,30 36.5,30 Z" id="Shape"></path>
            <path d="M36.5,38 L11.5,38 C10.948,38 10.5,38.447 10.5,39 C10.5,39.553 10.948,40 11.5,40 L36.5,40 C37.052,40 37.5,39.553 37.5,39 C37.5,38.447 37.052,38 36.5,38 Z" id="Shape"></path>
            <path d="M36.5,46 L11.5,46 C10.948,46 10.5,46.447 10.5,47 C10.5,47.553 10.948,48 11.5,48 L36.5,48 C37.052,48 37.5,47.553 37.5,47 C37.5,46.447 37.052,46 36.5,46 Z" id="Shape"></path>
            <path d="M32.914,0 L0.5,0 L0.5,60 L47.5,60 L47.5,14.586 L32.914,0 Z M33.5,3.414 L44.086,14 L33.5,14 L33.5,3.414 Z M2.5,58 L2.5,2 L31.5,2 L31.5,16 L45.5,16 L45.5,58 L2.5,58 Z" id="Shape"></path>
        </g>
    </g>
</svg>
