<?xml version="1.0" encoding="UTF-8"?>
<svg width="26px" height="21px" viewBox="0 0 26 21" version="1.1" xmlns="http://www.w3.org/2000/svg" xmlns:xlink="http://www.w3.org/1999/xlink">
    <!-- Generator: Sketch 44.1 (41455) - http://www.bohemiancoding.com/sketch -->
    <title>Group 4</title>
    <desc>Created with Sketch.</desc>
    <defs></defs>
    <g id="Finazalizar" stroke="none" stroke-width="1" fill="none" fill-rule="evenodd" stroke-linecap="round">
        <g id="Group-4" transform="translate(1.000000, 1.000000)" stroke="#CED4DA">
            <path d="M15.5,15 C15.5,15 19.656,15 20.049,15 C22.2315,15 24,13.2315 24,11.0495 C24,8.8675 22.2315,7.0985 20.049,7.0985 C20.039,7.0985 20.03,7.1 20.02,7.1 C20.0505,6.853 20.0715,6.603 20.0715,6.348 C20.0715,2.993 17.352,0.273 13.9965,0.273 C11.382,0.273 9.1605,1.9275 8.3035,4.2435 C7.76,3.699 7.008,3.3615 6.178,3.3615 C4.5185,3.3615 3.1735,4.7065 3.1735,6.3655 C3.1735,6.408 3.1785,6.449 3.18,6.491 C1.3475,6.9975 0,8.672 0,10.6655 C0,13.0595 1.9405,15 4.335,15 C4.7485,15 8.5,15 8.5,15" id="Shape" stroke-linejoin="round"></path>
            <polyline id="Shape" points="9.5 11.5 12 9 14.5 11.5"></polyline>
            <path d="M12,19 L12,9.1665" id="Shape"></path>
        </g>
    </g>
</svg>